<svg xmlns="http://www.w3.org/2000/svg" width="145" height="110" viewBox="0 0 145 110">
  <defs>
    <style>
      .cls-1 {
        fill: #fff;
        fill-rule: evenodd;
      }
    </style>
  </defs>
  <clip-path id="camera-clip">
    <path class="cls-1" d="M9,29.727H136.993a5,5,0,0,1,5,5V102a6,6,0,0,1-6,6H10a6,6,0,0,1-6-6V34.727A5,5,0,0,1,9,29.727ZM39.234,7.75L52.563,30.688H25.906Zm33.281,0L85.844,30.688H59.188Zm-30.3.023H69.521a3,3,0,0,1,3,3v20.2H39.212v-20.2A3,3,0,0,1,42.212,7.773ZM45.97,3h18.84a2,2,0,0,1,2,2V5.773a2,2,0,0,1-2,2H45.97a2,2,0,0,1-2-2V5A2,2,0,0,1,45.97,3ZM87.748,23.045h15.227v7.636H87.748V23.045Zm-0.855,0h16.936a2,2,0,0,1,2,2v0.773a2,2,0,0,1-2,2H86.893a2,2,0,0,1-2-2V25.045A2,2,0,0,1,86.893,23.045Zm26.743,1.909h4.372a4,4,0,0,1,4,4v1.727H109.636V28.954A4,4,0,0,1,113.636,24.954Z"/>
  </clip-path>
</svg>
